<svg width="24" height="24" viewBox="0 0 24 24" fill="none" xmlns="http://www.w3.org/2000/svg">
<path d="M20.226 7.24999C17.603 2.70799 11.794 1.15199 7.252 3.77499C2.709 6.39699 1.153 12.206 3.775 16.749C6.398 21.291 12.206 22.848 16.749 20.226C16.9212 20.1281 17.1251 20.1023 17.3162 20.1542C17.5073 20.2061 17.6702 20.3315 17.7692 20.503C17.8682 20.6745 17.8954 20.8782 17.8448 21.0697C17.7942 21.2612 17.6699 21.4248 17.499 21.525C12.239 24.562 5.512 22.76 2.475 17.499C-0.561999 12.24 1.24 5.51199 6.501 2.47499C11.76 -0.562007 18.488 1.23999 21.525 6.50099C22.3784 7.97476 22.8766 9.62713 22.98 11.327C22.993 11.383 23 11.44 23 11.5V13.75C23.0002 14.5371 22.7351 15.3013 22.2475 15.9191C21.7599 16.537 21.0782 16.9724 20.3127 17.1552C19.5471 17.3379 18.7423 17.2573 18.0282 16.9263C17.314 16.5953 16.7323 16.0333 16.377 15.331C15.5963 16.3569 14.4799 17.076 13.223 17.3626C11.966 17.6492 10.6483 17.4852 9.50002 16.8991C8.35171 16.3131 7.44577 15.3422 6.9404 14.1562C6.43504 12.9702 6.36238 11.6443 6.73511 10.4101C7.10783 9.17597 7.90227 8.11196 8.97966 7.40393C10.057 6.6959 11.3489 6.38884 12.6297 6.53639C13.9104 6.68393 15.0986 7.2767 15.9868 8.21116C16.875 9.14563 17.4067 10.3624 17.489 11.649C17.4961 11.6916 17.4998 11.7348 17.5 11.778V13.75C17.5 14.2804 17.7107 14.7891 18.0858 15.1642C18.4609 15.5393 18.9696 15.75 19.5 15.75C20.0304 15.75 20.5391 15.5393 20.9142 15.1642C21.2893 14.7891 21.5 14.2804 21.5 13.75V11.984C21.4987 10.3218 21.0593 8.68826 20.226 7.24999ZM16 12C16 10.9391 15.5786 9.92171 14.8284 9.17157C14.0783 8.42142 13.0609 7.99999 12 7.99999C10.9391 7.99999 9.92172 8.42142 9.17157 9.17157C8.42143 9.92171 8 10.9391 8 12C8 13.0609 8.42143 14.0783 9.17157 14.8284C9.92172 15.5786 10.9391 16 12 16C13.0609 16 14.0783 15.5786 14.8284 14.8284C15.5786 14.0783 16 13.0609 16 12Z" fill="black"/>
</svg>
