<svg width="24" height="24" viewBox="0 0 24 24" fill="none" xmlns="http://www.w3.org/2000/svg">
<path d="M8.75 11C8.94891 11 9.13968 11.079 9.28033 11.2197C9.42098 11.3603 9.5 11.5511 9.5 11.75V15.25C9.5 15.4489 9.42098 15.6397 9.28033 15.7803C9.13968 15.921 8.94891 16 8.75 16C8.55109 16 8.36032 15.921 8.21967 15.7803C8.07902 15.6397 8 15.4489 8 15.25V11.75C8 11.5511 8.07902 11.3603 8.21967 11.2197C8.36032 11.079 8.55109 11 8.75 11ZM16 11.75C16 11.5511 15.921 11.3603 15.7803 11.2197C15.6397 11.079 15.4489 11 15.25 11C15.0511 11 14.8603 11.079 14.7197 11.2197C14.579 11.3603 14.5 11.5511 14.5 11.75V15.25C14.5 15.4489 14.579 15.6397 14.7197 15.7803C14.8603 15.921 15.0511 16 15.25 16C15.4489 16 15.6397 15.921 15.7803 15.7803C15.921 15.6397 16 15.4489 16 15.25V11.75Z" fill="black"/>
<path d="M9.813 1H12.25C12.4489 1 12.6397 1.07902 12.7803 1.21967C12.921 1.36032 13 1.55109 13 1.75V5H19.75C20.3467 5 20.919 5.23705 21.341 5.65901C21.7629 6.08097 22 6.65326 22 7.25V12.5H23.25C23.4489 12.5 23.6397 12.579 23.7803 12.7197C23.921 12.8603 24 13.0511 24 13.25C24 13.4489 23.921 13.6397 23.7803 13.7803C23.6397 13.921 23.4489 14 23.25 14H22V19.75C22 20.3467 21.7629 20.919 21.341 21.341C20.919 21.7629 20.3467 22 19.75 22H4.25C3.65326 22 3.08097 21.7629 2.65901 21.341C2.23705 20.919 2 20.3467 2 19.75V14H0.75C0.551088 14 0.360322 13.921 0.21967 13.7803C0.0790176 13.6397 0 13.4489 0 13.25C0 13.0511 0.0790176 12.8603 0.21967 12.7197C0.360322 12.579 0.551088 12.5 0.75 12.5H2V7.25C2 6.65326 2.23705 6.08097 2.65901 5.65901C3.08097 5.23705 3.65326 5 4.25 5H11.5V2.5H9.813C9.61409 2.50013 9.42327 2.42124 9.28252 2.28068C9.14178 2.14013 9.06263 1.94941 9.0625 1.7505C9.06237 1.55159 9.14126 1.36077 9.28182 1.22002C9.42237 1.07928 9.61409 1.00013 9.813 1ZM3.5 7.25V19.75C3.5 20.164 3.836 20.5 4.25 20.5H19.75C19.9489 20.5 20.1397 20.421 20.2803 20.2803C20.421 20.1397 20.5 19.9489 20.5 19.75V7.25C20.5 7.05109 20.421 6.86032 20.2803 6.71967C20.1397 6.57902 19.9489 6.5 19.75 6.5H4.25C4.05109 6.5 3.86032 6.57902 3.71967 6.71967C3.57902 6.86032 3.5 7.05109 3.5 7.25Z" fill="black"/>
</svg>
