<svg width="24" height="24" viewBox="0 0 24 24" fill="none" xmlns="http://www.w3.org/2000/svg">
<g clip-path="url(#clip0_82_75)">
<path d="M9.19699 10C8.99808 10 8.80732 10.079 8.66666 10.2197C8.52601 10.3603 8.44699 10.5511 8.44699 10.75C8.44699 10.9489 8.52601 11.1397 8.66666 11.2803C8.80732 11.421 8.99808 11.5 9.19699 11.5H15.697C15.8959 11.5 16.0867 11.421 16.2273 11.2803C16.368 11.1397 16.447 10.9489 16.447 10.75C16.447 10.5511 16.368 10.3603 16.2273 10.2197C16.0867 10.079 15.8959 10 15.697 10H9.19699ZM6.81499 14C6.61608 14 6.42532 14.079 6.28466 14.2197C6.14401 14.3603 6.06499 14.5511 6.06499 14.75C6.06499 14.9489 6.14401 15.1397 6.28466 15.2803C6.42532 15.421 6.61608 15.5 6.81499 15.5H13.315C13.5139 15.5 13.7047 15.421 13.8453 15.2803C13.986 15.1397 14.065 14.9489 14.065 14.75C14.065 14.5511 13.986 14.3603 13.8453 14.2197C13.7047 14.079 13.5139 14 13.315 14H6.81499ZM5.23399 18C5.03508 18 4.84432 18.079 4.70366 18.2197C4.56301 18.3603 4.48399 18.5511 4.48399 18.75C4.48399 18.9489 4.56301 19.1397 4.70366 19.2803C4.84432 19.421 5.03508 19.5 5.23399 19.5H11.734C11.9329 19.5 12.1237 19.421 12.2643 19.2803C12.405 19.1397 12.484 18.9489 12.484 18.75C12.484 18.5511 12.405 18.3603 12.2643 18.2197C12.1237 18.079 11.9329 18 11.734 18H5.23399Z" fill="black"/>
<path d="M4.12521 1.92041e-05H19.8752C20.4173 -0.00163802 20.9545 0.103979 21.4556 0.310787C21.9567 0.517595 22.412 0.821507 22.7952 1.20502C23.1787 1.58821 23.4826 2.04349 23.6894 2.54463C23.8962 3.04577 24.0019 3.58288 24.0002 4.12502C24.0002 5.50902 23.5242 6.91902 22.8722 8.28502C22.2202 9.65002 21.3572 11.042 20.5202 12.389L20.5122 12.402C19.6632 13.77 18.8432 15.093 18.2322 16.372C17.6182 17.655 17.2502 18.822 17.2502 19.875C17.2502 20.3285 17.3678 20.7743 17.5913 21.1689C17.8149 21.5635 18.1369 21.8934 18.5259 22.1265C18.9149 22.3596 19.3577 22.488 19.811 22.4991C20.2644 22.5102 20.7129 22.4036 21.1129 22.1898C21.5128 21.9759 21.8505 21.6621 22.0931 21.279C22.3357 20.8958 22.4749 20.4563 22.4971 20.0033C22.5193 19.5503 22.4237 19.0993 22.2197 18.6943C22.0158 18.2892 21.7103 17.9439 21.3332 17.692C21.2513 17.6373 21.181 17.5669 21.1263 17.485C21.0717 17.4031 21.0336 17.3112 21.0145 17.2145C20.9953 17.1179 20.9953 17.0185 21.0146 16.9219C21.0338 16.8253 21.0719 16.7334 21.1267 16.6515C21.1815 16.5696 21.2518 16.4993 21.3337 16.4447C21.4157 16.39 21.5076 16.3519 21.6042 16.3328C21.7008 16.3136 21.8003 16.3136 21.8969 16.3329C21.9935 16.3522 22.0853 16.3903 22.1672 16.445C22.9024 16.937 23.4601 17.6524 23.7578 18.4855C24.0555 19.3185 24.0776 20.2253 23.8208 21.0718C23.5639 21.9184 23.0418 22.66 22.3314 23.1873C21.621 23.7145 20.7599 23.9994 19.8752 24H4.50021C3.40619 24 2.35698 23.5654 1.58339 22.7918C0.809806 22.0182 0.375209 20.969 0.375209 19.875C0.375209 17.641 1.63321 15.219 2.96521 12.973C3.31321 12.387 3.66721 11.811 4.01521 11.245C4.81521 9.94102 5.58221 8.69202 6.15921 7.50702H3.39021C2.56721 7.50702 1.50421 7.31402 0.823209 6.47202C0.282349 5.81028 -0.0089332 4.97962 0.000208826 4.12502C0.000208826 3.031 0.434806 1.98179 1.20839 1.2082C1.98198 0.434616 3.03119 1.92041e-05 4.12521 1.92041e-05ZM15.7502 19.875C15.7502 18.495 16.2262 17.089 16.8782 15.725C17.5272 14.367 18.3872 12.982 19.2212 11.639L19.2382 11.611C20.0872 10.244 20.9072 8.91902 21.5182 7.63902C22.1322 6.35402 22.5002 5.18202 22.5002 4.12502C22.5015 3.77993 22.4345 3.43799 22.3031 3.11891C22.1716 2.79984 21.9783 2.50993 21.7343 2.26592C21.4903 2.0219 21.2004 1.82859 20.8813 1.69714C20.5622 1.56569 20.2203 1.4987 19.8752 1.50002C19.179 1.50002 18.5113 1.77658 18.0191 2.26886C17.5268 2.76115 17.2502 3.42883 17.2502 4.12502C17.2502 4.99002 17.6712 5.63402 18.4172 6.13402C18.5507 6.22353 18.652 6.35357 18.706 6.50498C18.76 6.65639 18.764 6.82115 18.7173 6.97497C18.6705 7.1288 18.5756 7.26354 18.4465 7.35933C18.3174 7.45512 18.161 7.5069 18.0002 7.50702H7.81221C7.16221 8.99002 6.18821 10.576 5.23521 12.126C4.90121 12.67 4.56921 13.209 4.25521 13.738C2.90021 16.025 1.87521 18.109 1.87521 19.875C1.87521 20.5712 2.15177 21.2389 2.64405 21.7312C3.13634 22.2235 3.80402 22.5 4.50021 22.5H16.6932C16.0824 21.7618 15.7488 20.8332 15.7502 19.875ZM1.50021 4.12502C1.49021 4.63602 1.66321 5.13302 1.98721 5.52802C2.24121 5.84102 2.72721 6.00702 3.38921 6.00702H16.2492C15.9154 5.43648 15.743 4.78597 15.7502 4.12502C15.7489 3.16685 16.0825 2.23835 16.6932 1.50002H4.12521C3.42902 1.50002 2.76134 1.77658 2.26905 2.26886C1.77677 2.76115 1.50021 3.42883 1.50021 4.12502Z" fill="black"/>
</g>
<defs>
<clipPath id="clip0_82_75">
<rect width="24" height="24" fill="white"/>
</clipPath>
</defs>
</svg>
