<svg width="24" height="24" viewBox="0 0 24 24" fill="none" xmlns="http://www.w3.org/2000/svg">
<path d="M5.72 5.72C5.86062 5.57955 6.05125 5.50066 6.25 5.50066C6.44875 5.50066 6.63937 5.57955 6.78 5.72L12 10.94L17.22 5.72C17.3117 5.62127 17.4283 5.5491 17.5575 5.51109C17.6868 5.47307 17.8239 5.47062 17.9544 5.504C18.0849 5.53737 18.204 5.60533 18.2992 5.70072C18.3943 5.7961 18.462 5.91539 18.495 6.046C18.5284 6.17637 18.5261 6.31335 18.4882 6.44251C18.4504 6.57167 18.3785 6.68826 18.28 6.78L13.06 12L18.28 17.22C18.3787 17.3117 18.4509 17.4283 18.4889 17.5575C18.5269 17.6868 18.5294 17.8239 18.496 17.9544C18.4626 18.0849 18.3947 18.204 18.2993 18.2992C18.2039 18.3943 18.0846 18.462 17.954 18.495C17.8236 18.5284 17.6866 18.5261 17.5575 18.4882C17.4283 18.4504 17.3117 18.3785 17.22 18.28L12 13.06L6.78 18.28C6.63774 18.4124 6.44968 18.4845 6.25537 18.4812C6.06105 18.4778 5.8756 18.3992 5.738 18.262C5.60075 18.1244 5.5222 17.9389 5.51884 17.7446C5.51548 17.5503 5.58759 17.3623 5.72 17.22L10.94 12L5.72 6.78C5.57955 6.63937 5.50066 6.44875 5.50066 6.25C5.50066 6.05125 5.57955 5.86062 5.72 5.72Z" fill="black"/>
</svg>
