<svg width="24" height="24" viewBox="0 0 24 24" fill="none" xmlns="http://www.w3.org/2000/svg">
<path d="M8.456 14.494C8.53656 14.4331 8.62859 14.3891 8.72657 14.3646C8.82455 14.3401 8.92646 14.3357 9.0262 14.3516C9.12593 14.3675 9.22143 14.4033 9.30697 14.457C9.39252 14.5107 9.46633 14.5811 9.524 14.664C9.69378 14.8508 9.88589 15.0161 10.096 15.156C10.6599 15.5303 11.3232 15.7268 12 15.72C12.855 15.72 13.487 15.437 13.904 15.158C14.1141 15.0181 14.3062 14.8528 14.476 14.666L14.497 14.64C14.617 14.4813 14.7952 14.3767 14.9923 14.3493C15.1894 14.322 15.3893 14.374 15.548 14.494C15.7067 14.614 15.8113 14.7922 15.8387 14.9893C15.866 15.1864 15.814 15.3863 15.694 15.545L15.667 15.579C15.654 15.595 15.637 15.617 15.615 15.642C15.571 15.692 15.51 15.761 15.431 15.84C15.2184 16.051 14.9857 16.2406 14.736 16.406C13.9255 16.944 12.9727 17.2274 12 17.22C11.0273 17.2274 10.0745 16.944 9.264 16.406C9.01435 16.2406 8.78156 16.051 8.569 15.84C8.48568 15.7573 8.4069 15.6702 8.333 15.579C8.074 15.247 8.11 14.754 8.456 14.494Z" fill="black"/>
<path d="M12 1C18.075 1 23 5.925 23 12C23 18.075 18.075 23 12 23C5.925 23 1 18.075 1 12C1 5.925 5.925 1 12 1ZM2.5 12C2.5 14.5196 3.50089 16.9359 5.28249 18.7175C7.06408 20.4991 9.48044 21.5 12 21.5C14.5196 21.5 16.9359 20.4991 18.7175 18.7175C20.4991 16.9359 21.5 14.5196 21.5 12C21.5 9.48044 20.4991 7.06408 18.7175 5.28249C16.9359 3.50089 14.5196 2.5 12 2.5C9.48044 2.5 7.06408 3.50089 5.28249 5.28249C3.50089 7.06408 2.5 9.48044 2.5 12Z" fill="black"/>
<path d="M9 10.75C9 11.0815 8.8683 11.3995 8.63388 11.6339C8.39946 11.8683 8.08152 12 7.75 12C7.41848 12 7.10054 11.8683 6.86612 11.6339C6.6317 11.3995 6.5 11.0815 6.5 10.75C6.5 10.4185 6.6317 10.1005 6.86612 9.86612C7.10054 9.6317 7.41848 9.5 7.75 9.5C8.08152 9.5 8.39946 9.6317 8.63388 9.86612C8.8683 10.1005 9 10.4185 9 10.75ZM16.25 12C16.5815 12 16.8995 11.8683 17.1339 11.6339C17.3683 11.3995 17.5 11.0815 17.5 10.75C17.5 10.4185 17.3683 10.1005 17.1339 9.86612C16.8995 9.6317 16.5815 9.5 16.25 9.5C15.9185 9.5 15.6005 9.6317 15.3661 9.86612C15.1317 10.1005 15 10.4185 15 10.75C15 11.0815 15.1317 11.3995 15.3661 11.6339C15.6005 11.8683 15.9185 12 16.25 12Z" fill="black"/>
</svg>
