<svg width="24" height="24" viewBox="0 0 24 24" fill="none" xmlns="http://www.w3.org/2000/svg">
<path d="M11.28 9.53L8.81 12L11.28 14.47C11.3787 14.5617 11.4509 14.6783 11.4889 14.8075C11.5269 14.9368 11.5294 15.0739 11.496 15.2044C11.4626 15.3349 11.3947 15.454 11.2993 15.5492C11.2039 15.6443 11.0846 15.712 10.954 15.745C10.8236 15.7784 10.6867 15.7761 10.5575 15.7382C10.4283 15.7004 10.3117 15.6285 10.22 15.53L7.22 12.53C7.07955 12.3894 7.00066 12.1987 7.00066 12C7.00066 11.8012 7.07955 11.6106 7.22 11.47L10.22 8.47C10.3117 8.37127 10.4283 8.2991 10.5575 8.26109C10.6868 8.22307 10.8239 8.22062 10.9544 8.254C11.0849 8.28737 11.204 8.35533 11.2992 8.45072C11.3943 8.5461 11.462 8.66539 11.495 8.796C11.5284 8.92637 11.5261 9.06334 11.4883 9.19251C11.4504 9.32167 11.3785 9.43825 11.28 9.53Z" fill="black"/>
<path d="M3.75 2H20.25C21.216 2 22 2.784 22 3.75V20.25C22 20.7141 21.8156 21.1592 21.4874 21.4874C21.1592 21.8156 20.7141 22 20.25 22H3.75C3.28587 22 2.84075 21.8156 2.51256 21.4874C2.18437 21.1592 2 20.7141 2 20.25V3.75C2 2.784 2.784 2 3.75 2ZM3.5 3.75V20.25C3.5 20.388 3.612 20.5 3.75 20.5H15V3.5H3.75C3.6837 3.5 3.62011 3.52634 3.57322 3.57322C3.52634 3.62011 3.5 3.6837 3.5 3.75ZM16.5 20.5H20.25C20.3163 20.5 20.3799 20.4737 20.4268 20.4268C20.4737 20.3799 20.5 20.3163 20.5 20.25V3.75C20.5 3.6837 20.4737 3.62011 20.4268 3.57322C20.3799 3.52634 20.3163 3.5 20.25 3.5H16.5V20.5Z" fill="black"/>
</svg>
