<svg width="24" height="24" viewBox="0 0 24 24" fill="none" xmlns="http://www.w3.org/2000/svg">
<path d="M2.75 6C2.55109 6 2.36032 6.07902 2.21967 6.21967C2.07902 6.36032 2 6.55109 2 6.75C2 6.94891 2.07902 7.13968 2.21967 7.28033C2.36032 7.42098 2.55109 7.5 2.75 7.5H21.25C21.4489 7.5 21.6397 7.42098 21.7803 7.28033C21.921 7.13968 22 6.94891 22 6.75C22 6.55109 21.921 6.36032 21.7803 6.21967C21.6397 6.07902 21.4489 6 21.25 6H2.75ZM6 11.75C6 11.5511 6.07902 11.3603 6.21967 11.2197C6.36032 11.079 6.55109 11 6.75 11H17.25C17.4489 11 17.6397 11.079 17.7803 11.2197C17.921 11.3603 18 11.5511 18 11.75C18 11.9489 17.921 12.1397 17.7803 12.2803C17.6397 12.421 17.4489 12.5 17.25 12.5H6.75C6.55109 12.5 6.36032 12.421 6.21967 12.2803C6.07902 12.1397 6 11.9489 6 11.75ZM10 16.688C10 16.4891 10.079 16.2983 10.2197 16.1577C10.3603 16.017 10.5511 15.938 10.75 15.938H13.25C13.4489 15.938 13.6397 16.017 13.7803 16.1577C13.921 16.2983 14 16.4891 14 16.688C14 16.8869 13.921 17.0777 13.7803 17.2183C13.6397 17.359 13.4489 17.438 13.25 17.438H10.75C10.5511 17.438 10.3603 17.359 10.2197 17.2183C10.079 17.0777 10 16.8869 10 16.688Z" fill="black"/>
</svg>
