<svg width="24" height="24" viewBox="0 0 24 24" fill="none" xmlns="http://www.w3.org/2000/svg">
<path d="M14.265 1.627C14.265 5.172 16.134 6.954 17.744 8.648C19.284 10.268 20.75 11.811 20.75 14.75C20.75 19.562 16.997 23 12.185 23C7.372 23 3.25 19.579 3.25 14.75C3.25 12.711 4.212 10.739 5.759 9.851C6.064 9.676 6.431 9.858 6.562 10.185C7.563 12.684 8.797 12.64 9.437 12C9.825 11.613 9.907 10.884 9.433 9.938C7.028 5.126 11.296 1.659 13.633 1.084C13.969 1.002 14.248 1.282 14.265 1.627ZM12.185 21.5C16.244 21.5 19.25 18.66 19.25 14.75C19.25 12.413 18.157 11.261 16.572 9.592L16.551 9.569C15.111 8.052 13.412 6.218 12.902 3.012C12.1469 3.45584 11.4954 4.0559 10.991 4.772C10.204 5.916 9.844 7.405 10.775 9.267C11.378 10.472 11.552 12.007 10.498 13.061C9.841 13.718 8.736 14.161 7.542 13.647C6.79 13.323 6.189 12.692 5.704 11.857C5.137 12.563 4.75 13.597 4.75 14.75C4.75 18.597 8.038 21.5 12.185 21.5Z" fill="black"/>
</svg>
