<svg width="24" height="24" viewBox="0 0 24 24" fill="none" xmlns="http://www.w3.org/2000/svg">
<path d="M12 1C18.075 1 23 5.925 23 12C23 18.075 18.075 23 12 23C5.925 23 1 18.075 1 12C1 5.925 5.925 1 12 1ZM15.241 11.5V11.499C15.141 8.791 14.249 6.595 13.351 5.047C12.9687 4.38561 12.5325 3.75682 12.047 3.167L12 3.11L11.953 3.169C11.599 3.594 11.125 4.229 10.649 5.049C9.751 6.596 8.859 8.792 8.759 11.5H15.241ZM2.513 11.5H7.258C7.358 8.463 8.358 6.01 9.351 4.296C9.741 3.624 10.131 3.063 10.47 2.623C6.11 3.329 2.746 7 2.513 11.5ZM21.487 11.5C21.254 7 17.89 3.329 13.53 2.623C13.869 3.063 14.259 3.624 14.649 4.296C15.642 6.01 16.642 8.463 16.742 11.5H21.487ZM8.787 13C8.969 15.478 9.807 17.5 10.649 18.953C11.031 19.614 11.467 20.243 11.953 20.833L12 20.89L12.047 20.831C12.401 20.406 12.875 19.771 13.351 18.951C14.193 17.5 15.03 15.48 15.213 13H8.787ZM7.283 13H2.552C2.77185 15.0709 3.66573 17.0123 5.09626 18.5257C6.52678 20.0392 8.41477 21.0409 10.47 21.377C10.0618 20.8437 9.688 20.2849 9.351 19.704C8.413 18.085 7.47 15.807 7.283 13ZM16.717 13C16.531 15.807 15.587 18.085 14.649 19.704C14.259 20.376 13.869 20.937 13.531 21.377C15.5858 21.0404 17.4732 20.0384 18.9033 18.525C20.3334 17.0116 21.2271 15.0705 21.447 13H16.717Z" fill="black"/>
</svg>
