<svg width="24" height="24" viewBox="0 0 24 24" fill="none" xmlns="http://www.w3.org/2000/svg">
<path d="M11.03 2.59C11.3011 2.36044 11.6448 2.23447 12 2.23447C12.3552 2.23447 12.6989 2.36044 12.97 2.59L20.47 8.953C20.6361 9.09379 20.7695 9.26905 20.861 9.46661C20.9526 9.66416 21 9.87927 21 10.097V19.5C21 19.8978 20.842 20.2794 20.5607 20.5607C20.2794 20.842 19.8978 21 19.5 21H13.75C13.5511 21 13.3603 20.921 13.2197 20.7803C13.079 20.6397 13 20.4489 13 20.25V14H11V20.25C11 20.4489 10.921 20.6397 10.7803 20.7803C10.6397 20.921 10.4489 21 10.25 21H4.5C4.10218 21 3.72064 20.842 3.43934 20.5607C3.15804 20.2794 3 19.8978 3 19.5V10.097C3 9.657 3.194 9.238 3.53 8.953L11.03 2.59ZM12 3.734L4.5 10.097V19.5H9.5V13.25C9.5 13.0511 9.57902 12.8603 9.71967 12.7197C9.86032 12.579 10.0511 12.5 10.25 12.5H13.75C13.9489 12.5 14.1397 12.579 14.2803 12.7197C14.421 12.8603 14.5 13.0511 14.5 13.25V19.5H19.5V10.097L12 3.734Z" fill="black"/>
</svg>
