<svg width="24" height="24" viewBox="0 0 24 24" fill="none" xmlns="http://www.w3.org/2000/svg">
<path d="M4.801 3.57C4.93479 3.25275 5.15918 2.98202 5.4461 2.79169C5.73301 2.60136 6.0697 2.4999 6.414 2.5H17.588C18.29 2.5 18.925 2.92 19.199 3.567L22.94 12.395C22.98 12.487 23 12.587 23 12.688V20.25C23 20.7141 22.8156 21.1592 22.4874 21.4874C22.1592 21.8156 21.7141 22 21.25 22H2.75C2.28587 22 1.84075 21.8156 1.51256 21.4874C1.18437 21.1592 1 20.7141 1 20.25V12.75C1 12.65 1.02 12.551 1.059 12.459L4.8 3.571L4.801 3.57ZM6.414 4C6.36487 4.00008 6.31685 4.01464 6.27595 4.04185C6.23504 4.06906 6.20306 4.10772 6.184 4.153L2.88 12H8C8.1311 12 8.25992 12.0343 8.37362 12.0996C8.48732 12.1648 8.58192 12.2588 8.648 12.372L10.18 15H13.818L15.351 12.372C15.4164 12.2599 15.5097 12.1667 15.6219 12.1015C15.7341 12.0363 15.8613 12.0013 15.991 12L21.121 11.949L17.817 4.152C17.7978 4.10691 17.7657 4.06846 17.7248 4.04143C17.684 4.01441 17.636 4 17.587 4H6.414ZM21.5 13.445L16.433 13.495L14.898 16.128C14.8319 16.2412 14.7373 16.3352 14.6236 16.4004C14.5099 16.4657 14.3811 16.5 14.25 16.5H9.75C9.6189 16.5 9.49008 16.4657 9.37638 16.4004C9.26268 16.3352 9.16808 16.2412 9.102 16.128L7.57 13.5H2.5V20.25C2.5 20.388 2.612 20.5 2.75 20.5H21.25C21.3163 20.5 21.3799 20.4737 21.4268 20.4268C21.4737 20.3799 21.5 20.3163 21.5 20.25V13.445Z" fill="black"/>
</svg>
