<svg width="24" height="24" viewBox="0 0 24 24" fill="none" xmlns="http://www.w3.org/2000/svg">
<path d="M12 13.5C12.663 13.5 13.2989 13.2366 13.7678 12.7678C14.2366 12.2989 14.5 11.663 14.5 11C14.5 10.337 14.2366 9.70107 13.7678 9.23223C13.2989 8.76339 12.663 8.5 12 8.5C11.337 8.5 10.7011 8.76339 10.2322 9.23223C9.76339 9.70107 9.5 10.337 9.5 11C9.5 11.663 9.76339 12.2989 10.2322 12.7678C10.7011 13.2366 11.337 13.5 12 13.5Z" fill="black"/>
<path d="M19.071 3.429H19.072C22.977 7.334 22.977 13.666 19.072 17.571L13.669 22.974C13.2265 23.4161 12.6265 23.6645 12.001 23.6645C11.3755 23.6645 10.7755 23.4161 10.333 22.974L4.958 17.599L4.93 17.571C1.025 13.666 1.025 7.334 4.93 3.429C8.834 -0.475998 15.166 -0.475998 19.071 3.429ZM5.99 4.489C4.39619 6.08303 3.50082 8.24586 3.50082 10.5C3.50082 12.7541 4.39619 14.916 5.99 16.51L6.013 16.534L6.015 16.536L11.393 21.914C11.5541 22.0748 11.7724 22.1652 12 22.1652C12.2276 22.1652 12.4459 22.0748 12.607 21.914L18.01 16.51C19.585 14.9121 20.4643 12.7563 20.4563 10.5126C20.4482 8.26901 19.5534 6.11956 17.967 4.533C16.3806 2.94644 14.2312 2.05146 11.9876 2.04321C9.74394 2.03497 7.58805 2.91414 5.99 4.489Z" fill="black"/>
</svg>
