<svg width="50" height="50" viewBox="0 0 50 50" fill="none" xmlns="http://www.w3.org/2000/svg">
<g clip-path="url(#clip0_11_79)">
<path d="M15.5875 0.0124966C11.4067 0.277257 7.48924 2.14519 4.65166 5.22703C1.81408 8.30886 0.275225 12.3668 0.355803 16.5553C0.436381 20.7437 2.13017 24.7395 5.08419 27.7099C8.03821 30.6804 12.0246 32.3962 16.2125 32.5H29.4C31.1125 32.5 32.5 31.125 32.5 29.4V16.2625C32.5036 14.0711 32.0635 11.9016 31.2064 9.88483C30.3493 7.86802 29.0927 6.04557 27.5126 4.52728C25.9324 3.00898 24.0612 1.82625 22.0117 1.05034C19.9623 0.274434 17.777 -0.0786039 15.5875 0.0124966Z" fill="#FBEFFF"/>
<path d="M34.4125 49.9875C38.5933 49.7227 42.5108 47.8548 45.3483 44.773C48.1859 41.6911 49.7248 37.6332 49.6442 33.4447C49.5636 29.2563 47.8698 25.2605 44.9158 22.2901C41.9618 19.3196 37.9754 17.6038 33.7875 17.5H20.6C19.7778 17.5 18.9893 17.8266 18.408 18.408C17.8266 18.9893 17.5 19.7778 17.5 20.6V33.7375C17.4964 35.9289 17.9365 38.0983 18.7936 40.1152C19.6507 42.132 20.9073 43.9544 22.4874 45.4727C24.0676 46.991 25.9388 48.1737 27.9883 48.9497C30.0377 49.7256 32.223 50.0786 34.4125 49.9875Z" fill="#57606A"/>
<path d="M32.5 17.5V29.4C32.5 30.2222 32.1734 31.0107 31.592 31.592C31.0107 32.1734 30.2222 32.5 29.4 32.5H17.5V20.6C17.4984 19.8113 17.7974 19.0517 18.3362 18.4758C18.8749 17.8998 19.613 17.5509 20.4 17.5L20.6 17.4875H32.5V17.5Z" fill="#6E7781"/>
</g>
<defs>
<clipPath id="clip0_11_79">
<rect width="50" height="50" fill="white"/>
</clipPath>
</defs>
</svg>
