<svg width="24" height="24" viewBox="0 0 24 24" fill="none" xmlns="http://www.w3.org/2000/svg">
<g clip-path="url(#clip0_11_79)">
<path d="M7.482 0.00600187C5.47519 0.133087 3.59484 1.0297 2.2328 2.50898C0.870757 3.98826 0.132108 5.93609 0.170786 7.94654C0.209463 9.957 1.02248 11.875 2.44041 13.3008C3.85834 14.7266 5.77179 15.5502 7.782 15.6H14.112C14.934 15.6 15.6 14.94 15.6 14.112V7.806C15.6017 6.75413 15.3905 5.7128 14.9791 4.74472C14.5676 3.77665 13.9645 2.90188 13.206 2.1731C12.4475 1.44431 11.5494 0.876606 10.5656 0.504169C9.58191 0.131732 8.53296 -0.0377263 7.482 0.00600187Z" fill="#FBEFFF"/>
<path d="M16.518 23.994C18.5248 23.8669 20.4052 22.9703 21.7672 21.491C23.1292 20.0117 23.8679 18.0639 23.8292 16.0535C23.7905 14.043 22.9775 12.125 21.5596 10.6992C20.1417 9.27343 18.2282 8.44981 16.218 8.4H9.888C9.49336 8.4 9.11488 8.55677 8.83583 8.83583C8.55677 9.11488 8.4 9.49336 8.4 9.888V16.194C8.39828 17.2459 8.6095 18.2872 9.02093 19.2553C9.43236 20.2234 10.0355 21.0981 10.794 21.8269C11.5525 22.5557 12.4506 23.1234 13.4344 23.4958C14.4181 23.8683 15.467 24.0377 16.518 23.994Z" fill="#57606A"/>
<path d="M15.6 8.4V14.112C15.6 14.5066 15.4432 14.8851 15.1642 15.1642C14.8851 15.4432 14.5066 15.6 14.112 15.6H8.4V9.888C8.39921 9.50944 8.54274 9.14482 8.80135 8.86836C9.05997 8.59191 9.41423 8.42442 9.792 8.4L9.888 8.394H15.6V8.4Z" fill="#6E7781"/>
</g>
<defs>
<clipPath id="clip0_11_79">
<rect width="24" height="24" fill="white"/>
</clipPath>
</defs>
</svg>
