<svg width="24" height="24" viewBox="0 0 24 24" fill="none" xmlns="http://www.w3.org/2000/svg">
<path d="M22 1.75V16.25C21.9999 16.3862 21.9626 16.5197 21.8923 16.6364C21.8221 16.753 21.7213 16.8483 21.601 16.912C21.217 17.116 20.818 16.877 20.462 16.664L20.459 16.662C20.369 16.608 20.282 16.555 20.198 16.512C19.552 16.1827 18.8837 15.899 18.198 15.663C16.46 15.056 13.877 14.44 10.495 14.412C10.4982 14.4412 10.4999 14.4706 10.5 14.5C10.5 16.779 10.994 18.779 11.406 20.047C11.774 21.178 10.968 22.5 9.674 22.5H7.661C6.965 22.5 6.301 22.08 6.061 21.371C5.684 20.255 5 17.811 5 14.75V14.293C3.72155 13.932 2.61697 13.1204 1.89035 12.0083C1.16373 10.8962 0.864187 9.55869 1.04705 8.24289C1.22992 6.92709 1.88285 5.72194 2.88519 4.85012C3.88754 3.9783 5.17155 3.49872 6.5 3.5H10.25C13.755 3.5 16.425 2.89 18.205 2.29C18.8902 2.0625 19.5591 1.78853 20.207 1.47C20.3729 1.38762 20.5363 1.30024 20.697 1.208C20.745 1.18 20.792 1.153 20.839 1.123C20.9522 1.04926 21.0831 1.0074 21.2181 1.00184C21.353 0.996282 21.487 1.02723 21.6059 1.09141C21.7247 1.1556 21.8241 1.25065 21.8934 1.36655C21.9628 1.48246 21.9996 1.61493 22 1.75ZM10.5 12.912C14.064 12.941 16.813 13.59 18.693 14.247C19.43 14.505 20.033 14.764 20.5 14.987V2.993C20.033 3.209 19.427 3.46 18.685 3.711C16.807 4.345 14.061 4.971 10.5 4.999V12.912ZM6.5 5C5.43913 5 4.42172 5.42143 3.67157 6.17157C2.92142 6.92172 2.5 7.93914 2.5 9C2.5 10.0609 2.92142 11.0783 3.67157 11.8284C4.42172 12.5786 5.43913 13 6.5 13H9V5H6.5ZM6.5 14.75C6.5 17.597 7.138 19.873 7.482 20.891C7.5 20.942 7.556 21 7.661 21H9.674C9.761 21 9.853 20.957 9.923 20.853C9.95797 20.8039 9.98128 20.7475 9.99116 20.6881C10.001 20.6287 9.99722 20.5677 9.98 20.51C9.537 19.148 9 16.986 9 14.5H6.5V14.75Z" fill="black"/>
</svg>
