<svg width="24" height="24" viewBox="0 0 24 24" fill="none" xmlns="http://www.w3.org/2000/svg">
<path d="M1.22 1.22C1.36063 1.07955 1.55125 1.00066 1.75 1.00066C1.94875 1.00066 2.13937 1.07955 2.28 1.22L22.78 21.72C22.8787 21.8117 22.9509 21.9283 22.9889 22.0575C23.0269 22.1868 23.0294 22.3239 22.996 22.4544C22.9626 22.5849 22.8947 22.704 22.7993 22.7992C22.7039 22.8943 22.5846 22.962 22.454 22.995C22.3236 23.0284 22.1867 23.0261 22.0575 22.9883C21.9283 22.9504 21.8117 22.8785 21.72 22.78L17.94 19H15.5C15.5 19.4596 15.4095 19.9148 15.2336 20.3394C15.0577 20.764 14.7999 21.1499 14.4749 21.4749C14.1499 21.7999 13.764 22.0577 13.3394 22.2336C12.9148 22.4095 12.4596 22.5 12 22.5C11.5404 22.5 11.0852 22.4095 10.6606 22.2336C10.236 22.0577 9.85013 21.7999 9.52513 21.4749C9.20012 21.1499 8.94231 20.764 8.76642 20.3394C8.59053 19.9148 8.5 19.4596 8.5 19H3.518C3.24298 19.0007 2.97296 18.9265 2.73686 18.7855C2.50076 18.6444 2.30747 18.4418 2.1777 18.1993C2.04794 17.9568 1.98657 17.6836 2.00019 17.4089C2.01381 17.1343 2.10189 16.8685 2.255 16.64L4.455 13.342C4.81071 12.808 5.00035 12.1806 5 11.539V7C5 6.706 5.025 6.417 5.073 6.134L1.22 2.28C1.07955 2.13937 1.00066 1.94875 1.00066 1.75C1.00066 1.55125 1.07955 1.36063 1.22 1.22ZM6.5 7.56L6.499 11.539C6.49926 12.4767 6.22194 13.3936 5.702 14.174L3.502 17.472L3.499 17.482L3.5 17.489L3.504 17.495L3.51 17.499L3.517 17.5H16.44L6.5 7.56ZM10 19C10 19.5304 10.2107 20.0391 10.5858 20.4142C10.9609 20.7893 11.4696 21 12 21C12.5304 21 13.0391 20.7893 13.4142 20.4142C13.7893 20.0391 14 19.5304 14 19H10ZM12 2.5C10.537 2.5 9.2 2.985 8.212 3.757L8.172 3.789C8.09498 3.85039 8.00662 3.89601 7.91197 3.92326C7.81732 3.95051 7.71823 3.95884 7.62035 3.94779C7.52248 3.93674 7.42774 3.90652 7.34155 3.85886C7.25535 3.81119 7.17939 3.74702 7.118 3.67C7.05661 3.59298 7.01099 3.50462 6.98374 3.40997C6.95649 3.31532 6.94816 3.21623 6.95921 3.11835C6.97026 3.02048 7.00048 2.92574 7.04814 2.83955C7.09581 2.75336 7.15998 2.67739 7.237 2.616L7.287 2.576C8.548 1.59 10.212 1 12 1C15.681 1 19 3.565 19 7V11.539C19 12.181 19.19 12.808 19.546 13.342L20.874 15.334C20.9299 15.4159 20.969 15.5081 20.9891 15.6053C21.0091 15.7024 21.0097 15.8025 20.9908 15.8999C20.9719 15.9973 20.9338 16.0899 20.8789 16.1725C20.8239 16.255 20.7531 16.3259 20.6706 16.3809C20.5881 16.4359 20.4955 16.474 20.3981 16.493C20.3007 16.512 20.2006 16.5115 20.1034 16.4915C20.0063 16.4715 19.9141 16.4324 19.8321 16.3766C19.7502 16.3207 19.6801 16.2491 19.626 16.166L18.298 14.174C17.7777 13.3937 17.5 12.4769 17.5 11.539V7C17.5 4.636 15.117 2.5 12 2.5Z" fill="black"/>
</svg>
