<svg width="24" height="24" viewBox="0 0 24 24" fill="none" xmlns="http://www.w3.org/2000/svg">
<path d="M12 2.5C13.1761 2.49964 14.3213 2.87629 15.2676 3.57467C16.2139 4.27305 16.9114 5.25638 17.2578 6.38032C17.6041 7.50427 17.5811 8.70964 17.192 9.81952C16.8029 10.9294 16.0683 11.8853 15.096 12.547C16.7837 13.166 18.2474 14.2759 19.2989 15.7339C20.3504 17.1919 20.9414 18.9312 20.996 20.728C21.0011 20.8277 20.9862 20.9275 20.9523 21.0214C20.9183 21.1153 20.8659 21.2015 20.7982 21.2749C20.7305 21.3483 20.6488 21.4074 20.5579 21.4488C20.467 21.4902 20.3688 21.513 20.269 21.516C20.1692 21.5189 20.0698 21.5019 19.9766 21.4659C19.8835 21.4299 19.7984 21.3756 19.7265 21.3063C19.6546 21.237 19.5973 21.1541 19.5579 21.0623C19.5185 20.9706 19.4978 20.8719 19.497 20.772C19.4375 18.8235 18.6215 16.9747 17.2222 15.6174C15.8228 14.2602 13.95 13.5011 12.0005 13.5011C10.051 13.5011 8.17819 14.2602 6.77883 15.6174C5.37946 16.9747 4.56355 18.8235 4.504 20.772C4.49803 20.9709 4.41329 21.1593 4.26842 21.2957C4.12355 21.4322 3.93041 21.5055 3.7315 21.4995C3.53259 21.4935 3.34419 21.4088 3.20776 21.2639C3.07133 21.119 2.99803 20.9259 3.004 20.727C3.05875 18.9304 3.64989 17.1913 4.70136 15.7335C5.75283 14.2757 7.2165 13.1659 8.904 12.547C7.93169 11.8853 7.19708 10.9294 6.808 9.81952C6.41892 8.70964 6.39586 7.50427 6.74221 6.38032C7.08856 5.25638 7.78607 4.27305 8.73236 3.57467C9.67866 2.87629 10.8239 2.49964 12 2.5ZM8 8C8 9.06087 8.42143 10.0783 9.17157 10.8284C9.92172 11.5786 10.9391 12 12 12C13.0609 12 14.0783 11.5786 14.8284 10.8284C15.5786 10.0783 16 9.06087 16 8C16 6.93913 15.5786 5.92172 14.8284 5.17157C14.0783 4.42143 13.0609 4 12 4C10.9391 4 9.92172 4.42143 9.17157 5.17157C8.42143 5.92172 8 6.93913 8 8Z" fill="black"/>
</svg>
