<svg width="24" height="24" viewBox="0 0 24 24" fill="none" xmlns="http://www.w3.org/2000/svg">
<path d="M16.114 1.55302L22.447 7.88602C22.6529 8.09178 22.8042 8.34566 22.8873 8.62466C22.9703 8.90366 22.9825 9.19897 22.9226 9.48384C22.8627 9.76871 22.7327 10.0342 22.5444 10.2561C22.3561 10.4781 22.1153 10.6496 21.844 10.755L20.214 11.388C19.3992 11.7051 18.6688 12.2064 18.0799 12.8526C17.4909 13.4988 17.0594 14.2724 16.819 15.113L15.688 19.072C15.6043 19.365 15.4456 19.6311 15.2274 19.8439C15.0093 20.0568 14.7394 20.209 14.4444 20.2854C14.1495 20.3619 13.8396 20.36 13.5456 20.28C13.2515 20.1999 12.9835 20.0445 12.768 19.829L9 16.061L3.405 21.655C3.3354 21.7246 3.25277 21.7798 3.16183 21.8175C3.0709 21.8552 2.97343 21.8745 2.875 21.8745C2.77657 21.8745 2.6791 21.8552 2.58816 21.8175C2.49723 21.7798 2.4146 21.7246 2.345 21.655C2.2754 21.5854 2.22019 21.5028 2.18252 21.4118C2.14485 21.3209 2.12547 21.2234 2.12547 21.125C2.12547 21.0266 2.14485 20.9291 2.18252 20.8382C2.22019 20.7472 2.2754 20.6646 2.345 20.595L7.939 15L4.171 11.232C3.95554 11.0165 3.8001 10.7485 3.72005 10.4544C3.64 10.1604 3.63811 9.85055 3.71459 9.55557C3.79106 9.26058 3.94324 8.99068 4.15606 8.77257C4.36889 8.55446 4.63498 8.3957 4.928 8.31202L8.887 7.18102C9.72775 6.94091 10.5015 6.50948 11.1478 5.9205C11.794 5.33151 12.2952 4.60096 12.612 3.78602L13.245 2.15602C13.3505 1.88469 13.5219 1.64396 13.7439 1.45563C13.9659 1.26729 14.2313 1.1373 14.5162 1.07743C14.801 1.01755 15.0964 1.02969 15.3754 1.11273C15.6544 1.19577 15.9082 1.3471 16.114 1.55302ZM5.232 10.171L13.829 18.768C13.8598 18.7988 13.898 18.8209 13.94 18.8324C13.982 18.8438 14.0262 18.8441 14.0684 18.8332C14.1105 18.8222 14.149 18.8005 14.1802 18.7702C14.2113 18.7398 14.234 18.7018 14.246 18.66L15.377 14.701C15.6809 13.6379 16.2265 12.6595 16.9713 11.8423C17.716 11.025 18.6396 10.3911 19.67 9.99002L21.3 9.35602C21.3386 9.34088 21.3728 9.31639 21.3996 9.28474C21.4263 9.25309 21.4448 9.21529 21.4534 9.17472C21.4619 9.13416 21.4602 9.09211 21.4484 9.05236C21.4367 9.01261 21.4152 8.97641 21.386 8.94701L15.053 2.61402C15.0236 2.58479 14.9874 2.56333 14.9477 2.55157C14.9079 2.53981 14.8659 2.53812 14.8253 2.54665C14.7847 2.55518 14.7469 2.57366 14.7153 2.60044C14.6836 2.62721 14.6591 2.66143 14.644 2.70002L14.01 4.33001C13.6089 5.36038 12.975 6.28403 12.1577 7.02876C11.3405 7.77349 10.3621 8.31913 9.299 8.62302L5.34 9.75401C5.29818 9.766 5.26021 9.78869 5.22984 9.81985C5.19948 9.851 5.17777 9.88954 5.16686 9.93166C5.15595 9.97377 5.15623 10.018 5.16765 10.06C5.17907 10.102 5.20125 10.1402 5.232 10.171Z" fill="black"/>
</svg>
