<svg width="24" height="24" viewBox="0 0 24 24" fill="none" xmlns="http://www.w3.org/2000/svg">
<path d="M16 19.25C16 18.388 16.3424 17.5614 16.9519 16.9519C17.5614 16.3424 18.388 16 19.25 16C20.112 16 20.9386 16.3424 21.5481 16.9519C22.1576 17.5614 22.5 18.388 22.5 19.25C22.5 20.112 22.1576 20.9386 21.5481 21.5481C20.9386 22.1576 20.112 22.5 19.25 22.5C18.388 22.5 17.5614 22.1576 16.9519 21.5481C16.3424 20.9386 16 20.112 16 19.25ZM1.5 19.25C1.5 18.388 1.84241 17.5614 2.4519 16.9519C3.0614 16.3424 3.88805 16 4.75 16C5.61195 16 6.4386 16.3424 7.0481 16.9519C7.65759 17.5614 8 18.388 8 19.25C8 20.112 7.65759 20.9386 7.0481 21.5481C6.4386 22.1576 5.61195 22.5 4.75 22.5C3.88805 22.5 3.0614 22.1576 2.4519 21.5481C1.84241 20.9386 1.5 20.112 1.5 19.25ZM1.5 4.75C1.5 3.88805 1.84241 3.0614 2.4519 2.4519C3.0614 1.84241 3.88805 1.5 4.75 1.5C5.61195 1.5 6.4386 1.84241 7.0481 2.4519C7.65759 3.0614 8 3.88805 8 4.75C8 5.61195 7.65759 6.4386 7.0481 7.0481C6.4386 7.65759 5.61195 8 4.75 8C3.88805 8 3.0614 7.65759 2.4519 7.0481C1.84241 6.4386 1.5 5.61195 1.5 4.75ZM4.75 3C4.52012 3.00007 4.29251 3.04541 4.08015 3.13344C3.8678 3.22147 3.67486 3.35047 3.51236 3.51306C3.34985 3.67566 3.22097 3.86867 3.13306 4.08107C3.04515 4.29348 2.99993 4.52112 3 4.751C3.00007 4.98088 3.04541 5.20849 3.13344 5.42085C3.22147 5.6332 3.35047 5.82614 3.51306 5.98864C3.67566 6.15115 3.86867 6.28003 4.08107 6.36794C4.29348 6.45585 4.52112 6.50107 4.751 6.501C5.21526 6.50087 5.66046 6.31631 5.98864 5.98794C6.31683 5.65956 6.50113 5.21426 6.501 4.75C6.50087 4.28574 6.31631 3.84054 5.98794 3.51236C5.65956 3.18417 5.21426 2.99987 4.75 3ZM4.75 17.5C4.28574 17.5001 3.84054 17.6847 3.51236 18.0131C3.18417 18.3414 2.99987 18.7867 3 19.251C3.00013 19.7153 3.18469 20.1605 3.51306 20.4886C3.84144 20.8168 4.28674 21.0011 4.751 21.001C4.98088 21.0009 5.20849 20.9556 5.42085 20.8676C5.6332 20.7795 5.82614 20.6505 5.98864 20.4879C6.15115 20.3253 6.28003 20.1323 6.36794 19.9199C6.45585 19.7075 6.50107 19.4799 6.501 19.25C6.50093 19.0201 6.45559 18.7925 6.36756 18.5802C6.27953 18.3678 6.15053 18.1749 5.98794 18.0124C5.82534 17.8499 5.63233 17.721 5.41993 17.6331C5.20752 17.5451 4.97988 17.4999 4.75 17.5ZM19.25 17.5C19.0201 17.5001 18.7925 17.5454 18.5802 17.6334C18.3678 17.7215 18.1749 17.8505 18.0124 18.0131C17.8499 18.1757 17.721 18.3687 17.6331 18.5811C17.5451 18.7935 17.4999 19.0211 17.5 19.251C17.5001 19.4809 17.5454 19.7085 17.6334 19.9208C17.7215 20.1332 17.8505 20.3261 18.0131 20.4886C18.1757 20.6511 18.3687 20.78 18.5811 20.8679C18.7935 20.9559 19.0211 21.0011 19.251 21.001C19.7153 21.0009 20.1605 20.8163 20.4886 20.4879C20.8168 20.1596 21.0011 19.7143 21.001 19.25C21.0009 18.7857 20.8163 18.3405 20.4879 18.0124C20.1596 17.6842 19.7143 17.4999 19.25 17.5Z" fill="black"/>
<path d="M13.405 1.72C13.5455 1.86062 13.6243 2.05125 13.6243 2.25C13.6243 2.44875 13.5455 2.63937 13.405 2.78L12.185 4H16.25C17.2446 4 18.1984 4.39508 18.9017 5.09835C19.6049 5.80161 20 6.75543 20 7.75V16.5C20 16.6989 19.921 16.8897 19.7803 17.0303C19.6397 17.171 19.4489 17.25 19.25 17.25C19.0511 17.25 18.8603 17.171 18.7197 17.0303C18.579 16.8897 18.5 16.6989 18.5 16.5V7.75C18.5 7.15326 18.2629 6.58096 17.841 6.15901C17.419 5.73705 16.8467 5.5 16.25 5.5H12.186L13.406 6.72C13.5426 6.86151 13.6181 7.051 13.6163 7.24765C13.6145 7.44429 13.5355 7.63237 13.3964 7.77136C13.2572 7.91035 13.0691 7.98914 12.8725 7.99075C12.6758 7.99237 12.4864 7.91668 12.345 7.78L9.845 5.28C9.70455 5.13937 9.62566 4.94875 9.62566 4.75C9.62566 4.55125 9.70455 4.36062 9.845 4.22L12.345 1.72C12.4856 1.57955 12.6762 1.50066 12.875 1.50066C13.0738 1.50066 13.2644 1.57955 13.405 1.72ZM4.75 7.25C4.94891 7.25 5.13968 7.32901 5.28033 7.46967C5.42098 7.61032 5.5 7.80108 5.5 8V16C5.5 16.1989 5.42098 16.3897 5.28033 16.5303C5.13968 16.671 4.94891 16.75 4.75 16.75C4.55109 16.75 4.36032 16.671 4.21967 16.5303C4.07902 16.3897 4 16.1989 4 16V8C4 7.80108 4.07902 7.61032 4.21967 7.46967C4.36032 7.32901 4.55109 7.25 4.75 7.25Z" fill="black"/>
</svg>
