<svg width="24" height="24" viewBox="0 0 24 24" fill="none" xmlns="http://www.w3.org/2000/svg">
<path d="M12.75 7.75C12.75 7.55109 12.671 7.36032 12.5303 7.21967C12.3897 7.07902 12.1989 7 12 7C11.8011 7 11.6103 7.07902 11.4697 7.21967C11.329 7.36032 11.25 7.55109 11.25 7.75V11.25H7.75C7.55109 11.25 7.36032 11.329 7.21967 11.4697C7.07902 11.6103 7 11.8011 7 12C7 12.1989 7.07902 12.3897 7.21967 12.5303C7.36032 12.671 7.55109 12.75 7.75 12.75H11.25V16.25C11.25 16.4489 11.329 16.6397 11.4697 16.7803C11.6103 16.921 11.8011 17 12 17C12.1989 17 12.3897 16.921 12.5303 16.7803C12.671 16.6397 12.75 16.4489 12.75 16.25V12.75H16.25C16.4489 12.75 16.6397 12.671 16.7803 12.5303C16.921 12.3897 17 12.1989 17 12C17 11.8011 16.921 11.6103 16.7803 11.4697C16.6397 11.329 16.4489 11.25 16.25 11.25H12.75V7.75Z" fill="black"/>
<path d="M12 1C18.075 1 23 5.925 23 12C23 18.075 18.075 23 12 23C5.925 23 1 18.075 1 12C1 5.925 5.925 1 12 1ZM2.5 12C2.5 14.5196 3.50089 16.9359 5.28249 18.7175C7.06408 20.4991 9.48044 21.5 12 21.5C14.5196 21.5 16.9359 20.4991 18.7175 18.7175C20.4991 16.9359 21.5 14.5196 21.5 12C21.5 9.48044 20.4991 7.06408 18.7175 5.28249C16.9359 3.50089 14.5196 2.5 12 2.5C9.48044 2.5 7.06408 3.50089 5.28249 5.28249C3.50089 7.06408 2.5 9.48044 2.5 12Z" fill="black"/>
</svg>
