<svg width="24" height="24" viewBox="0 0 24 24" fill="none" xmlns="http://www.w3.org/2000/svg">
<path d="M10.25 2C11.818 1.99983 13.3535 2.44648 14.6767 3.28763C16 4.12878 17.0561 5.3296 17.7214 6.74941C18.3867 8.16922 18.6336 9.74922 18.4333 11.3043C18.2329 12.8594 17.5935 14.3252 16.59 15.53L22.28 21.22C22.3787 21.3117 22.4509 21.4283 22.4889 21.5575C22.5269 21.6868 22.5294 21.8239 22.496 21.9544C22.4626 22.0849 22.3947 22.204 22.2993 22.2992C22.2039 22.3943 22.0846 22.462 21.954 22.495C21.8236 22.5284 21.6867 22.5261 21.5575 22.4883C21.4283 22.4504 21.3117 22.3785 21.22 22.28L15.53 16.59C14.5118 17.4378 13.3045 18.0278 12.01 18.3103C10.7156 18.5928 9.37215 18.5594 8.09336 18.2128C6.81457 17.8663 5.63805 17.2169 4.66332 16.3195C3.68859 15.4222 2.94431 14.3033 2.49346 13.0574C2.0426 11.8116 1.89842 10.4755 2.07312 9.16216C2.24782 7.84883 2.73626 6.59689 3.49712 5.51224C4.25798 4.42759 5.26887 3.54214 6.4443 2.93079C7.61972 2.31944 8.9251 2.00017 10.25 2ZM3.5 10.25C3.5 11.1364 3.67459 12.0142 4.01381 12.8331C4.35303 13.6521 4.85023 14.3962 5.47703 15.023C6.10382 15.6498 6.84794 16.147 7.66689 16.4862C8.48583 16.8254 9.36358 17 10.25 17C11.1364 17 12.0142 16.8254 12.8331 16.4862C13.6521 16.147 14.3962 15.6498 15.023 15.023C15.6498 14.3962 16.147 13.6521 16.4862 12.8331C16.8254 12.0142 17 11.1364 17 10.25C17 8.45979 16.2888 6.7429 15.023 5.47703C13.7571 4.21116 12.0402 3.5 10.25 3.5C8.45979 3.5 6.7429 4.21116 5.47703 5.47703C4.21116 6.7429 3.5 8.45979 3.5 10.25Z" fill="black"/>
</svg>
