<svg width="24" height="24" viewBox="0 0 24 24" fill="none" xmlns="http://www.w3.org/2000/svg">
<path d="M1.513 1.96001C1.71485 1.78207 1.9645 1.66732 2.23098 1.62999C2.49745 1.59266 2.76903 1.63439 3.012 1.75001L22.347 10.965C22.5424 11.0583 22.7074 11.2051 22.8229 11.3882C22.9384 11.5714 22.9996 11.7835 22.9996 12C22.9996 12.2165 22.9384 12.4287 22.8229 12.6118C22.7074 12.795 22.5424 12.9417 22.347 13.035L3.012 22.25C2.78569 22.3578 2.53423 22.4015 2.28483 22.3766C2.03542 22.3517 1.79758 22.2591 1.59706 22.1087C1.39653 21.9583 1.24095 21.756 1.14717 21.5235C1.05339 21.2911 1.02497 21.0374 1.065 20.79L2.49 12L1.065 3.21001C1.02806 2.98078 1.04977 2.74592 1.12811 2.52735C1.20644 2.30877 1.33886 2.11359 1.513 1.96001ZM3.888 12.75L2.584 20.792L21.031 12L2.584 3.20801L3.888 11.25H11.25C11.4489 11.25 11.6397 11.329 11.7803 11.4697C11.921 11.6103 12 11.8011 12 12C12 12.1989 11.921 12.3897 11.7803 12.5303C11.6397 12.671 11.4489 12.75 11.25 12.75H3.888Z" fill="black"/>
</svg>
