<svg width="24" height="24" viewBox="0 0 24 24" fill="none" xmlns="http://www.w3.org/2000/svg">
<path d="M16 12C16 13.0609 15.5786 14.0783 14.8284 14.8284C14.0783 15.5786 13.0609 16 12 16C10.9391 16 9.92172 15.5786 9.17157 14.8284C8.42143 14.0783 8 13.0609 8 12C8 10.9391 8.42143 9.92172 9.17157 9.17157C9.92172 8.42143 10.9391 8 12 8C13.0609 8 14.0783 8.42143 14.8284 9.17157C15.5786 9.92172 16 10.9391 16 12ZM14.5 12C14.5 11.337 14.2366 10.7011 13.7678 10.2322C13.2989 9.76339 12.663 9.5 12 9.5C11.337 9.5 10.7011 9.76339 10.2322 10.2322C9.76339 10.7011 9.5 11.337 9.5 12C9.5 12.663 9.76339 13.2989 10.2322 13.7678C10.7011 14.2366 11.337 14.5 12 14.5C12.663 14.5 13.2989 14.2366 13.7678 13.7678C14.2366 13.2989 14.5 12.663 14.5 12Z" fill="black"/>
<path d="M12 1C12.266 1 12.532 1.009 12.797 1.028C13.56 1.083 14.142 1.645 14.309 2.332L14.661 3.782C14.68 3.86 14.751 3.953 14.886 4.003C15.133 4.092 15.376 4.193 15.614 4.305C15.744 4.366 15.86 4.349 15.929 4.307L17.204 3.531C17.807 3.163 18.615 3.178 19.194 3.678C19.596 4.027 19.974 4.404 20.322 4.807C20.823 5.385 20.837 6.193 20.469 6.797L19.693 8.071C19.651 8.14 19.635 8.256 19.695 8.386C19.807 8.624 19.908 8.867 19.998 9.114C20.046 9.249 20.14 9.319 20.218 9.339L21.668 9.691C22.355 9.858 22.917 10.44 22.971 11.203C23.009 11.734 23.009 12.266 22.971 12.797C22.917 13.56 22.355 14.142 21.668 14.309L20.218 14.661C20.14 14.68 20.047 14.751 19.997 14.886C19.908 15.134 19.807 15.377 19.695 15.614C19.634 15.744 19.651 15.86 19.693 15.929L20.469 17.204C20.837 17.807 20.822 18.615 20.322 19.194C19.973 19.596 19.596 19.974 19.193 20.322C18.615 20.823 17.807 20.837 17.203 20.469L15.929 19.693C15.86 19.651 15.744 19.635 15.615 19.695C15.3768 19.8071 15.1335 19.9082 14.886 19.998C14.751 20.046 14.681 20.14 14.661 20.218L14.309 21.668C14.142 22.355 13.56 22.917 12.797 22.971C12.266 23.009 11.734 23.009 11.203 22.971C10.44 22.917 9.858 22.355 9.691 21.668L9.339 20.218C9.32 20.14 9.249 20.047 9.114 19.997C8.8666 19.9081 8.62365 19.8074 8.386 19.695C8.256 19.634 8.14 19.651 8.071 19.693L6.796 20.469C6.193 20.837 5.385 20.822 4.806 20.322C4.404 19.973 4.026 19.596 3.678 19.193C3.177 18.615 3.163 17.807 3.531 17.203L4.307 15.929C4.349 15.86 4.365 15.744 4.305 15.615C4.1929 15.3768 4.0918 15.1335 4.002 14.886C3.954 14.751 3.86 14.681 3.782 14.661L2.332 14.309C1.645 14.142 1.083 13.56 1.028 12.797C0.989999 12.2663 0.989999 11.7337 1.028 11.203C1.083 10.44 1.645 9.858 2.332 9.691L3.782 9.339C3.86 9.32 3.953 9.249 4.003 9.114C4.092 8.866 4.193 8.623 4.305 8.386C4.366 8.256 4.349 8.14 4.307 8.071L3.531 6.796C3.163 6.193 3.178 5.385 3.678 4.806C4.027 4.404 4.404 4.026 4.807 3.678C5.385 3.177 6.193 3.163 6.797 3.531L8.071 4.307C8.14 4.349 8.256 4.365 8.386 4.305C8.624 4.193 8.867 4.092 9.114 4.002C9.249 3.954 9.319 3.86 9.339 3.782L9.691 2.332C9.858 1.645 10.44 1.083 11.203 1.028C11.466 1.01 11.732 1 12 1ZM11.31 2.525C11.255 2.529 11.175 2.575 11.149 2.686L10.796 4.136C10.7212 4.42906 10.5751 4.69905 10.3706 4.92187C10.1661 5.1447 9.90958 5.31343 9.624 5.413C9.42033 5.48686 9.22012 5.56995 9.024 5.662C8.75135 5.79388 8.45028 5.85615 8.14769 5.84323C7.8451 5.83032 7.55042 5.74263 7.29 5.588L6.016 4.812C5.918 4.752 5.83 4.776 5.788 4.812C5.44007 5.11393 5.11393 5.44007 4.812 5.788C4.776 5.83 4.752 5.919 4.812 6.016L5.588 7.29C5.902 7.819 5.93 8.47 5.662 9.024C5.56995 9.22012 5.48686 9.42033 5.413 9.624C5.31355 9.90993 5.14476 10.1667 4.92173 10.3715C4.6987 10.5762 4.42839 10.7224 4.135 10.797L2.685 11.148C2.575 11.175 2.529 11.255 2.525 11.31C2.492 11.7694 2.492 12.2306 2.525 12.69C2.529 12.745 2.575 12.825 2.686 12.851L4.136 13.204C4.42906 13.2788 4.69905 13.4249 4.92187 13.6294C5.1447 13.8339 5.31343 14.0904 5.413 14.376C5.487 14.58 5.57 14.78 5.662 14.976C5.93 15.529 5.902 16.18 5.588 16.709L4.812 17.984C4.752 18.082 4.776 18.17 4.812 18.212C5.113 18.56 5.44 18.887 5.788 19.188C5.83 19.224 5.919 19.248 6.016 19.188L7.29 18.412C7.55024 18.257 7.8449 18.1689 8.14754 18.1559C8.45018 18.1428 8.75134 18.205 9.024 18.337C9.22 18.43 9.42 18.513 9.624 18.587C9.90993 18.6864 10.1667 18.8552 10.3715 19.0783C10.5762 19.3013 10.7224 19.5716 10.797 19.865L11.148 21.315C11.175 21.425 11.255 21.471 11.31 21.475C11.7694 21.508 12.2306 21.508 12.69 21.475C12.745 21.471 12.825 21.425 12.851 21.314L13.204 19.864C13.2788 19.5708 13.4249 19.3007 13.6294 19.0777C13.8339 18.8548 14.0904 18.6858 14.376 18.586C14.5798 18.5129 14.7801 18.4301 14.976 18.338C15.2485 18.2061 15.5494 18.1439 15.8518 18.1568C16.1543 18.1697 16.4488 18.2574 16.709 18.412L17.984 19.188C18.082 19.248 18.17 19.224 18.212 19.188C18.56 18.887 18.887 18.56 19.188 18.212C19.224 18.17 19.248 18.081 19.188 17.984L18.412 16.709C18.2575 16.4488 18.1698 16.1543 18.1567 15.8519C18.1436 15.5495 18.2055 15.2486 18.337 14.976C18.43 14.78 18.513 14.58 18.587 14.376C18.6865 14.0901 18.8552 13.8333 19.0783 13.6285C19.3013 13.4238 19.5716 13.2776 19.865 13.203L21.315 12.852C21.425 12.825 21.471 12.745 21.475 12.69C21.508 12.2306 21.508 11.7694 21.475 11.31C21.471 11.255 21.425 11.175 21.314 11.149L19.864 10.796C19.238 10.644 18.784 10.171 18.586 9.624C18.5133 9.42004 18.4305 9.2198 18.338 9.024C18.2061 8.75135 18.1439 8.45028 18.1568 8.14769C18.1697 7.8451 18.2574 7.55042 18.412 7.29L19.188 6.016C19.248 5.918 19.224 5.83 19.188 5.788C18.8861 5.44007 18.5599 5.11393 18.212 4.812C18.17 4.776 18.081 4.752 17.984 4.812L16.709 5.588C16.4488 5.74263 16.1543 5.83032 15.8518 5.84324C15.5494 5.85615 15.2485 5.79388 14.976 5.662C14.78 5.5696 14.5798 5.48651 14.376 5.413C14.0902 5.31324 13.8336 5.14434 13.6289 4.92136C13.4243 4.69838 13.278 4.42824 13.203 4.135L12.852 2.685C12.825 2.575 12.745 2.529 12.69 2.525C12.2306 2.492 11.7694 2.492 11.31 2.525Z" fill="black"/>
</svg>
