<svg width="24" height="24" viewBox="0 0 24 24" fill="none" xmlns="http://www.w3.org/2000/svg">
<path d="M11.063 1.456C11.3432 1.27823 11.6682 1.18383 12 1.18383C12.3318 1.18383 12.6568 1.27823 12.937 1.456L21.32 6.772C21.5688 6.93007 21.7737 7.14842 21.9157 7.40679C22.0577 7.66516 22.1321 7.95519 22.1321 8.25C22.1321 8.5448 22.0577 8.83484 21.9157 9.09321C21.7737 9.35158 21.5688 9.56992 21.32 9.728L12.937 15.044C12.6568 15.2218 12.3318 15.3162 12 15.3162C11.6682 15.3162 11.3432 15.2218 11.063 15.044L2.68 9.728C2.43116 9.56992 2.22625 9.35158 2.08429 9.09321C1.94232 8.83484 1.86789 8.5448 1.86789 8.25C1.86789 7.95519 1.94232 7.66516 2.08429 7.40679C2.22625 7.14842 2.43116 6.93007 2.68 6.772L11.063 1.456ZM12.134 2.723C12.0939 2.69756 12.0475 2.68405 12 2.68405C11.9525 2.68405 11.9061 2.69756 11.866 2.723L3.483 8.039C3.44748 8.06157 3.41823 8.09274 3.39797 8.12963C3.37771 8.16651 3.36708 8.20791 3.36708 8.25C3.36708 8.29208 3.37771 8.33349 3.39797 8.37037C3.41823 8.40726 3.44748 8.43843 3.483 8.461L11.866 13.777C11.9061 13.8024 11.9525 13.8159 12 13.8159C12.0475 13.8159 12.0939 13.8024 12.134 13.777L20.517 8.461C20.5525 8.43843 20.5818 8.40726 20.602 8.37037C20.6223 8.33349 20.6329 8.29208 20.6329 8.25C20.6329 8.20791 20.6223 8.16651 20.602 8.12963C20.5818 8.09274 20.5525 8.06157 20.517 8.039L12.134 2.723Z" fill="black"/>
<path d="M1.867 12.324C1.91972 12.2408 1.98831 12.1688 2.06886 12.1121C2.14941 12.0554 2.24034 12.0152 2.33645 11.9936C2.43255 11.9721 2.53197 11.9697 2.629 11.9866C2.72604 12.0035 2.8188 12.0393 2.902 12.092L11.866 17.777C11.9061 17.8024 11.9525 17.8159 12 17.8159C12.0475 17.8159 12.0939 17.8024 12.134 17.777L21.098 12.092C21.1812 12.0392 21.274 12.0033 21.371 11.9864C21.4681 11.9695 21.5675 11.9718 21.6637 11.9933C21.7598 12.0148 21.8508 12.055 21.9314 12.1117C22.012 12.1683 22.0807 12.2403 22.1335 12.3235C22.1863 12.4067 22.2222 12.4995 22.2391 12.5965C22.2561 12.6936 22.2537 12.793 22.2322 12.8892C22.2107 12.9854 22.1705 13.0763 22.1138 13.1569C22.0572 13.2376 21.9852 13.3062 21.902 13.359L12.937 19.044C12.6568 19.2218 12.3318 19.3162 12 19.3162C11.6682 19.3162 11.3432 19.2218 11.063 19.044L2.098 13.359C1.93014 13.2524 1.81151 13.0834 1.7682 12.8893C1.72488 12.6952 1.76042 12.4919 1.867 12.324Z" fill="black"/>
<path d="M1.867 16.324C1.91972 16.2408 1.98831 16.1688 2.06886 16.1121C2.14941 16.0554 2.24034 16.0152 2.33645 15.9936C2.43255 15.9721 2.53197 15.9697 2.629 15.9866C2.72604 16.0034 2.8188 16.0393 2.902 16.092L11.866 21.777C11.9061 21.8024 11.9525 21.8159 12 21.8159C12.0475 21.8159 12.0939 21.8024 12.134 21.777L21.098 16.092C21.266 15.9854 21.4695 15.9499 21.6637 15.9933C21.8579 16.0367 22.0269 16.1555 22.1335 16.3235C22.2401 16.4915 22.2756 16.695 22.2322 16.8892C22.1888 17.0834 22.07 17.2524 21.902 17.359L12.937 23.044C12.6568 23.2218 12.3318 23.3162 12 23.3162C11.6682 23.3162 11.3432 23.2218 11.063 23.044L2.098 17.359C1.93014 17.2524 1.81151 17.0834 1.7682 16.8893C1.72488 16.6952 1.76042 16.4919 1.867 16.324Z" fill="black"/>
</svg>
