<svg width="24" height="24" viewBox="0 0 24 24" fill="none" xmlns="http://www.w3.org/2000/svg">
<g clip-path="url(#clip0_11_47)">
<path d="M17.155 22.87C17.3223 22.7626 17.4401 22.5931 17.4825 22.3988C17.5249 22.2045 17.4884 22.0014 17.381 21.834L13.381 15.595C13.2835 15.4435 13.1348 15.3322 12.9621 15.2813C12.7893 15.2305 12.604 15.2435 12.44 15.318L9.69 16.568C9.56021 16.6269 9.4499 16.7216 9.372 16.841L6.122 21.83C6.01985 21.9965 5.98668 22.1963 6.02956 22.3869C6.07245 22.5774 6.18799 22.7438 6.35161 22.8505C6.51524 22.9571 6.71404 22.9958 6.90572 22.9582C7.0974 22.9206 7.26684 22.8096 7.378 22.649L10.509 17.843L11.019 17.611V23.251C11.019 23.4499 11.098 23.6407 11.2387 23.7813C11.3793 23.922 11.5701 24.001 11.769 24.001C11.9679 24.001 12.1587 23.922 12.2993 23.7813C12.44 23.6407 12.519 23.4499 12.519 23.251V17.031L16.119 22.644C16.2264 22.8113 16.3959 22.9291 16.5902 22.9715C16.7845 23.0139 16.9876 22.9774 17.155 22.87ZM0.408 15.13C0.157294 14.6958 0.0788031 14.1833 0.188074 13.694C0.297344 13.2047 0.586406 12.7743 0.998 12.488L17.038 1.33C17.262 1.17409 17.5155 1.0657 17.783 1.0115C18.0504 0.95729 18.3261 0.958422 18.5932 1.01482C18.8602 1.07122 19.1128 1.18169 19.3355 1.33943C19.5582 1.49717 19.7462 1.69883 19.888 1.932L22.716 6.576C22.8617 6.81528 22.9555 7.08249 22.9913 7.36033C23.0271 7.63817 23.0042 7.92044 22.9239 8.18884C22.8437 8.45724 22.708 8.7058 22.5256 8.9184C22.3431 9.13101 22.1181 9.30292 21.865 9.423L4.103 17.853C3.64888 18.0686 3.13021 18.1053 2.65026 17.9557C2.17031 17.8062 1.76428 17.4814 1.513 17.046L0.408 15.13ZM13.513 5.609L16.37 10.369L17.731 9.723L14.747 4.75L13.513 5.609ZM5.671 11.064L4.436 11.924L6.298 15.149L7.658 14.504L5.671 11.064Z" fill="black"/>
</g>
<defs>
<clipPath id="clip0_11_47">
<rect width="24" height="24" fill="white"/>
</clipPath>
</defs>
</svg>
