<svg width="24" height="24" viewBox="0 0 24 24" fill="none" xmlns="http://www.w3.org/2000/svg">
<g clip-path="url(#clip0_11_49)">
<path d="M0.408 15.13C0.157294 14.6958 0.0788031 14.1833 0.188074 13.694C0.297344 13.2047 0.586406 12.7743 0.998 12.488L17.038 1.33C17.262 1.17409 17.5155 1.0657 17.783 1.0115C18.0504 0.95729 18.3261 0.958422 18.5932 1.01482C18.8602 1.07122 19.1128 1.18169 19.3355 1.33943C19.5582 1.49717 19.7462 1.69883 19.888 1.932L22.716 6.576C22.8617 6.81528 22.9555 7.08249 22.9913 7.36033C23.0271 7.63817 23.0042 7.92044 22.9239 8.18884C22.8437 8.45724 22.708 8.7058 22.5256 8.9184C22.3431 9.13101 22.1181 9.30292 21.865 9.423L4.103 17.853C3.64888 18.0686 3.13021 18.1053 2.65026 17.9557C2.17031 17.8062 1.76428 17.4814 1.513 17.046L0.408 15.13ZM5.671 11.064L7.658 14.504L16.37 10.369L13.513 5.609L5.671 11.064ZM17.731 9.724L17.732 9.723L21.222 8.067C21.2855 8.03716 21.3419 7.99424 21.3876 7.94107C21.4334 7.8879 21.4674 7.82567 21.4874 7.75845C21.5074 7.69124 21.513 7.62055 21.5038 7.55103C21.4946 7.4815 21.4708 7.4147 21.434 7.355L18.608 2.711C18.5723 2.65296 18.5251 2.60278 18.4694 2.56352C18.4137 2.52426 18.3506 2.49674 18.2839 2.48261C18.2172 2.46849 18.1483 2.46807 18.0815 2.48137C18.0146 2.49468 17.9512 2.52143 17.895 2.56L14.747 4.75L17.731 9.724ZM4.436 11.924L1.854 13.72C1.75131 13.7916 1.67924 13.8992 1.65202 14.0214C1.6248 14.1436 1.64442 14.2716 1.707 14.38L2.812 16.295C2.87495 16.4038 2.9766 16.485 3.09669 16.5222C3.21678 16.5595 3.3465 16.5501 3.46 16.496L6.298 15.149L4.436 11.924ZM17.155 22.87C17.3223 22.7626 17.4401 22.5931 17.4825 22.3988C17.5249 22.2045 17.4884 22.0014 17.381 21.834L13.381 15.595C13.2837 15.4434 13.1351 15.3318 12.9623 15.2808C12.7895 15.2297 12.6041 15.2426 12.44 15.317L9.69 16.567C9.56008 16.6262 9.44976 16.7213 9.372 16.841L6.122 21.83C6.01985 21.9965 5.98668 22.1963 6.02956 22.3869C6.07245 22.5774 6.18799 22.7438 6.35161 22.8505C6.51524 22.9571 6.71404 22.9958 6.90572 22.9582C7.0974 22.9206 7.26684 22.8096 7.378 22.649L10.509 17.843L11.019 17.611V23.251C11.019 23.4499 11.098 23.6407 11.2387 23.7813C11.3793 23.922 11.5701 24.001 11.769 24.001C11.9679 24.001 12.1587 23.922 12.2993 23.7813C12.44 23.6407 12.519 23.4499 12.519 23.251V17.031L16.119 22.644C16.2264 22.8113 16.3959 22.9291 16.5902 22.9715C16.7845 23.0139 16.9876 22.9774 17.155 22.87Z" fill="black"/>
</g>
<defs>
<clipPath id="clip0_11_49">
<rect width="24" height="24" fill="white"/>
</clipPath>
</defs>
</svg>
