<svg width="24" height="24" viewBox="0 0 24 24" fill="none" xmlns="http://www.w3.org/2000/svg">
<path d="M20 14C19.7337 14.006 19.4688 13.9588 19.221 13.861C18.9731 13.7633 18.7473 13.617 18.5568 13.4308C18.3663 13.2446 18.2149 13.0222 18.1115 12.7767C18.0081 12.5311 17.9549 12.2674 17.9548 12.001C17.9547 11.7346 18.0079 11.4709 18.1111 11.2253C18.2144 10.9797 18.3657 10.7572 18.5561 10.5709C18.7465 10.3846 18.9723 10.2382 19.22 10.1404C19.4678 10.0425 19.7327 9.99512 19.999 10.001C20.5216 10.0126 21.0188 10.2282 21.3844 10.6018C21.7499 10.9755 21.9547 11.4773 21.9548 12C21.9549 12.5227 21.7504 13.0247 21.3851 13.3985C21.0197 13.7723 20.5226 13.9882 20 14ZM6 12C6.00602 12.2663 5.95877 12.5312 5.86103 12.779C5.76328 13.0269 5.61701 13.2527 5.4308 13.4432C5.24458 13.6337 5.02218 13.7851 4.77666 13.8885C4.53113 13.9919 4.26742 14.0452 4.00101 14.0452C3.7346 14.0453 3.47087 13.9921 3.22529 13.8889C2.97971 13.7856 2.75723 13.6343 2.57093 13.4439C2.38462 13.2535 2.23823 13.0277 2.14036 12.78C2.04249 12.5322 1.99511 12.2673 2.001 12.001C2.01256 11.4784 2.22822 10.9812 2.60184 10.6156C2.97545 10.2501 3.47732 10.0454 4.00001 10.0452C4.5227 10.0451 5.02467 10.2496 5.39847 10.6149C5.77227 10.9803 5.98818 11.4775 6 12ZM14 12C14.006 12.2663 13.9588 12.5312 13.861 12.779C13.7633 13.0269 13.617 13.2527 13.4308 13.4432C13.2446 13.6337 13.0222 13.7851 12.7767 13.8885C12.5311 13.9919 12.2674 14.0452 12.001 14.0452C11.7346 14.0453 11.4709 13.9921 11.2253 13.8889C10.9797 13.7856 10.7572 13.6343 10.5709 13.4439C10.3846 13.2535 10.2382 13.0277 10.1404 12.78C10.0425 12.5322 9.99511 12.2673 10.001 12.001C10.0126 11.4784 10.2282 10.9812 10.6018 10.6156C10.9755 10.2501 11.4773 10.0454 12 10.0452C12.5227 10.0451 13.0247 10.2496 13.3985 10.6149C13.7723 10.9803 13.9882 11.4775 14 12Z" fill="black"/>
</svg>
