<svg width="24" height="24" viewBox="0 0 24 24" fill="none" xmlns="http://www.w3.org/2000/svg">
<path d="M9.836 3.244C10.799 1.579 13.201 1.579 14.164 3.244L23.131 18.748C24.094 20.415 22.891 22.5 20.966 22.5H3.034C1.108 22.5 -0.0939997 20.415 0.869 18.748L9.836 3.244ZM12 8.5C11.8011 8.5 11.6103 8.57902 11.4697 8.71967C11.329 8.86032 11.25 9.05109 11.25 9.25V13.75C11.25 13.9489 11.329 14.1397 11.4697 14.2803C11.6103 14.421 11.8011 14.5 12 14.5C12.1989 14.5 12.3897 14.421 12.5303 14.2803C12.671 14.1397 12.75 13.9489 12.75 13.75V9.25C12.75 9.05109 12.671 8.86032 12.5303 8.71967C12.3897 8.57902 12.1989 8.5 12 8.5ZM13 17.5C13 17.2348 12.8946 16.9804 12.7071 16.7929C12.5196 16.6054 12.2652 16.5 12 16.5C11.7348 16.5 11.4804 16.6054 11.2929 16.7929C11.1054 16.9804 11 17.2348 11 17.5C11 17.7652 11.1054 18.0196 11.2929 18.2071C11.4804 18.3946 11.7348 18.5 12 18.5C12.2652 18.5 12.5196 18.3946 12.7071 18.2071C12.8946 18.0196 13 17.7652 13 17.5Z" fill="black"/>
</svg>
